<svg width="13" height="13" viewBox="0 0 13 13" fill="none" xmlns="http://www.w3.org/2000/svg">
<g clip-path="url(#clip0_481_163)">
<path d="M12.7969 6.5C12.7969 3.02148 9.97852 0.203125 6.5 0.203125C3.02148 0.203125 0.203125 3.02148 0.203125 6.5C0.203125 9.64285 2.5058 12.2479 5.51611 12.7207V8.32025H3.9165V6.5H5.51611V5.11266C5.51611 3.53463 6.45557 2.66297 7.89445 2.66297C8.58356 2.66297 9.30414 2.78586 9.30414 2.78586V4.33469H8.50992C7.72789 4.33469 7.48389 4.82016 7.48389 5.31807V6.5H9.23025L8.95096 8.32025H7.48389V12.7207C10.4942 12.2479 12.7969 9.64285 12.7969 6.5Z" fill="white"/>
</g>
<defs>
<clipPath id="clip0_481_163">
<rect width="13" height="13" fill="white"/>
</clipPath>
</defs>
</svg>
