<svg width="13" height="15" viewBox="0 0 13 15" fill="none" xmlns="http://www.w3.org/2000/svg">
<g clip-path="url(#clip0_481_165)">
<path d="M6.50313 4.09161C4.65759 4.09161 3.16897 5.58022 3.16897 7.42576C3.16897 9.2713 4.65759 10.7599 6.50313 10.7599C8.34866 10.7599 9.83728 9.2713 9.83728 7.42576C9.83728 5.58022 8.34866 4.09161 6.50313 4.09161ZM6.50313 9.59339C5.31049 9.59339 4.33549 8.6213 4.33549 7.42576C4.33549 6.23022 5.30759 5.25813 6.50313 5.25813C7.69866 5.25813 8.67076 6.23022 8.67076 7.42576C8.67076 8.6213 7.69576 9.59339 6.50313 9.59339ZM10.7513 3.95522C10.7513 4.38759 10.4031 4.7329 9.97366 4.7329C9.5413 4.7329 9.19598 4.38469 9.19598 3.95522C9.19598 3.52576 9.5442 3.17755 9.97366 3.17755C10.4031 3.17755 10.7513 3.52576 10.7513 3.95522ZM12.9596 4.74451C12.9103 3.70277 12.6723 2.78 11.9092 2.01973C11.1489 1.25947 10.2261 1.02152 9.18438 0.969287C8.11071 0.90835 4.89263 0.90835 3.81897 0.969287C2.78013 1.01862 1.85737 1.25656 1.0942 2.01683C0.331027 2.7771 0.0959821 3.69987 0.04375 4.74161C-0.0171875 5.81527 -0.0171875 9.03335 0.04375 10.107C0.0930804 11.1488 0.331027 12.0715 1.0942 12.8318C1.85737 13.5921 2.77723 13.83 3.81897 13.8822C4.89263 13.9432 8.11071 13.9432 9.18438 13.8822C10.2261 13.8329 11.1489 13.595 11.9092 12.8318C12.6694 12.0715 12.9074 11.1488 12.9596 10.107C13.0205 9.03335 13.0205 5.81817 12.9596 4.74451ZM11.5725 11.259C11.3462 11.8278 10.908 12.2659 10.3364 12.4952C9.48036 12.8347 7.44911 12.7563 6.50313 12.7563C5.55714 12.7563 3.52299 12.8318 2.66987 12.4952C2.10112 12.2688 1.66295 11.8307 1.43371 11.259C1.0942 10.403 1.17254 8.37174 1.17254 7.42576C1.17254 6.47978 1.0971 4.44563 1.43371 3.5925C1.66004 3.02375 2.09821 2.58558 2.66987 2.35634C3.52589 2.01683 5.55714 2.09518 6.50313 2.09518C7.44911 2.09518 9.48326 2.01973 10.3364 2.35634C10.9051 2.58268 11.3433 3.02085 11.5725 3.5925C11.9121 4.44853 11.8337 6.47978 11.8337 7.42576C11.8337 8.37174 11.9121 10.4059 11.5725 11.259Z" fill="white"/>
</g>
<defs>
<clipPath id="clip0_481_165">
<rect width="13" height="14.8571" fill="white"/>
</clipPath>
</defs>
</svg>
