<svg width="13" height="16" viewBox="0 0 13 16" fill="none" xmlns="http://www.w3.org/2000/svg">
<path d="M11.0529 2.85459C9.83705 1.61981 8.21786 0.940674 6.4971 0.940674C2.94531 0.940674 0.0551339 3.86888 0.0551339 7.4674C0.0551339 8.61693 0.351116 9.74 0.914062 10.7308L0 14.1117L3.4154 13.2033C4.35558 13.7237 5.41473 13.9971 6.4942 13.9971H6.4971C10.046 13.9971 13 11.0689 13 7.47034C13 5.72694 12.2687 4.08938 11.0529 2.85459ZM6.4971 12.8975C5.53371 12.8975 4.59062 12.6359 3.76942 12.142L3.575 12.0244L1.54955 12.5624L2.08929 10.5602L1.96161 10.3545C1.42478 9.4901 1.1433 8.49345 1.1433 7.4674C1.1433 4.47745 3.54598 2.04316 6.5 2.04316C7.93058 2.04316 9.27411 2.60764 10.2839 3.63368C11.2937 4.65973 11.9147 6.02094 11.9118 7.47034C11.9118 10.4632 9.44821 12.8975 6.4971 12.8975ZM9.43371 8.83449C9.27411 8.75217 8.48192 8.35821 8.33393 8.30529C8.18594 8.24943 8.07857 8.22297 7.97121 8.38761C7.86384 8.55225 7.55625 8.91681 7.46049 9.02853C7.36763 9.1373 7.27187 9.152 7.11228 9.06968C6.16629 8.59047 5.54531 8.21415 4.92143 7.12931C4.75603 6.84119 5.08683 6.86177 5.39442 6.2385C5.44665 6.12972 5.42054 6.03564 5.37991 5.95332C5.33929 5.871 5.01719 5.06839 4.88371 4.74205C4.75313 4.42454 4.61964 4.46864 4.52098 4.46276C4.42812 4.45688 4.32076 4.45688 4.21339 4.45688C4.10603 4.45688 3.93192 4.49803 3.78393 4.65973C3.63594 4.82437 3.22098 5.21833 3.22098 6.02094C3.22098 6.82355 3.79844 7.5997 3.87679 7.70848C3.95804 7.81726 5.01138 9.46364 6.62768 10.1722C7.64911 10.619 8.04955 10.6573 8.56027 10.5808C8.87076 10.5338 9.51205 10.1869 9.64554 9.80468C9.77902 9.42248 9.77902 9.09614 9.73839 9.02853C9.70067 8.95503 9.5933 8.91387 9.43371 8.83449Z" fill="white"/>
</svg>
